<svg width="46" height="47" viewBox="0 0 46 47" fill="none" xmlns="http://www.w3.org/2000/svg">
<path fill-rule="evenodd" clip-rule="evenodd" d="M37.2427 29.0112C47.8341 28.7659 45.6372 17.9458 41.1329 16.6343C42.437 9.63985 35.3447 5.23694 30.2612 8.79137C18.5871 -8.85533 0.768837 8.58478 4.06872 17.9698C-1.85041 20.5761 1.12114 31.9127 8.72617 32.2908C9.11906 33.8051 9.86426 46.2152 9.86426 46.2152C16.3441 41.0228 31.4361 41.4711 35.5605 45.695C35.5605 45.695 36.9365 31.5087 37.2501 28.9632L37.2427 29.0112Z" fill="white"/>
<path d="M37.1634 8.03509C34.7544 8.40584 34.2915 10.4035 35.3097 15.1402C36.3297 19.877 36.5602 26.427 36.5602 26.427C36.5602 26.427 32.9652 15.7102 31.7054 11.9898C30.4456 8.2675 30.9086 8.03509 30.9086 8.03509C30.9086 8.03509 32.0762 7.68647 33.9945 7.53522C35.9128 7.38396 37.1634 8.21954 37.1634 8.21954" fill="url(#paint0_linear)"/>
<path d="M42.0274 17.0362C41.9149 17.4715 41.8559 17.7888 41.8559 17.7888C41.8559 17.7888 43.8591 24.5933 40.3839 25.569C36.9088 26.5448 32.1278 22.8668 29.4717 20.8323C27.1088 19.0209 23.0766 15.2157 15.7796 16.1213C8.48265 17.027 6.98489 7.43724 12.5997 3.72234C12.5997 3.72234 11.1609 3.92524 9.4455 4.75712C5.16986 8.33921 2.63916 13.9097 4.06868 17.9714C3.92849 18.0323 3.79568 18.1005 3.66472 18.1724C3.72928 18.3846 3.78277 18.5395 3.8086 18.6391C3.96538 19.2478 5.76381 21.974 5.76381 21.974C5.76381 21.974 3.1833 19.6315 2.12269 20.3103C1.28527 20.847 1.74087 25.3864 2.09686 27.8341C2.91215 29.3559 4.13508 30.6766 5.69741 31.4808C6.22863 31.704 6.60492 31.8405 6.60492 31.8405C6.60492 31.8405 8.23734 29.7506 8.55091 28.88C8.86448 28.0094 13.4168 26.3364 16.5783 25.676C19.7399 25.0138 26.9539 24.8239 31.7054 26.6426C36.4569 28.4631 37.8477 28.8449 37.8477 28.8449C37.8477 28.8449 37.9731 28.8892 38.1852 28.9611C47.0206 28.168 45.7534 19.3105 42.0274 17.0362Z" fill="url(#paint1_linear)"/>
<path d="M31.7054 26.6391C26.9539 24.8185 19.7417 25.0103 16.5783 25.6725C13.4168 26.3347 8.86264 28.0059 8.55092 28.8765C8.23734 29.7471 6.60492 31.837 6.60492 31.837C6.60492 31.837 6.23786 31.7042 5.72139 31.4883C6.61784 31.9458 7.62127 32.2335 8.72614 32.2889C9.11903 33.8032 9.86423 46.2133 9.86423 46.2133C11.3399 45.0309 13.26 44.1437 15.3978 43.524C13.5699 37.7247 13.4334 28.3213 19.8819 27.4746C27.3947 26.4878 35.0034 29.3819 37.1044 30.2654C37.1615 29.7323 37.2095 29.3044 37.2464 29.0111L37.2519 28.9632C37.2501 28.9779 37.2482 28.9964 37.2464 29.0111C37.4308 29.0074 37.6116 28.9982 37.7887 28.9872C37.7924 28.9337 37.7942 28.8802 37.7979 28.8267C37.5046 28.7418 35.9405 28.2622 31.7054 26.6391Z" fill="url(#paint2_linear)"/>
<path d="M42.9202 16.8591C42.1731 16.195 41.843 15.5697 41.9131 14.4556C41.9832 13.3415 41.9131 10.311 38.96 8.01083C36.0069 5.71253 33.2087 6.6348 32.3399 7.15681C31.4711 7.67881 30.9491 8.04587 29.42 6.16445C27.8909 4.28486 25.3362 0 17.7607 0C10.1852 0 3.7219 7.24535 3.12981 11.6003C2.53955 15.9553 3.26814 16.9642 2.53955 18.1484C1.80911 19.3326 -1.31738 21.2823 0.628612 26.8915C2.5746 32.5008 6.43153 32.4823 7.52718 32.6741L9.65947 46.7719C9.73325 47.2644 12.5757 45.7095 18.5999 44.2689C23.4788 43.1032 29.6118 44.3261 34.8909 46.641C35.5642 46.9361 36.3278 46.486 36.3887 45.7538C36.4661 44.9809 36.5381 44.2062 36.6063 43.4333C37.1099 38.6966 38.0893 31.1358 39.2717 30.3039C41.0092 29.0847 43.6506 29.9553 45.4583 25.462C47.2641 20.9706 43.6691 17.525 42.9202 16.8591ZM44.0693 22.7173C44.0214 23.2301 43.9199 23.7521 43.765 24.2667L43.7096 24.4604L43.7023 24.4844L43.6986 24.4973C43.6967 24.5028 43.6967 24.5028 43.6967 24.5028L43.6838 24.5397L43.6469 24.6449C43.599 24.7795 43.551 24.9363 43.5012 25.0525C43.4514 25.1687 43.4035 25.2831 43.3592 25.4011L43.1932 25.7553C42.9571 26.2146 42.6859 26.637 42.3705 26.9985C41.7452 27.7271 40.9391 28.1956 40.1626 28.4631C39.3842 28.7324 37.4972 27.9872 37.4972 27.5463C37.3257 28.2915 37.1708 29.0404 37.0232 29.7893C36.8683 30.5363 36.7391 31.2889 36.5971 32.0378C36.4588 32.7867 36.3278 33.5374 36.2042 34.29C36.0733 35.0388 35.9681 35.7951 35.8574 36.5495C35.6435 38.0602 35.4387 39.5727 35.2543 41.0871C35.1233 42.1495 34.9997 43.2157 34.8817 44.28C34.4833 44.0697 34.0812 43.8668 33.6717 43.6971C33.264 43.509 32.8453 43.3632 32.4284 43.2138C32.0097 43.0644 31.5837 42.9556 31.1613 42.8246C30.7352 42.7103 30.3054 42.6236 29.8775 42.524C29.61 42.4668 29.3407 42.4225 29.0695 42.3801C18.2642 40.0763 10.7865 45.2723 10.436 45.5214C10.436 45.5214 10.436 45.5214 10.4342 45.5214C10.3346 45.5804 9.3127 32.9933 9.3127 32.9933C9.2426 32.261 8.72613 29.2636 11.0207 28.1882C11.4708 27.978 11.9467 27.8249 12.4134 27.6552C12.8819 27.4873 13.3541 27.3305 13.83 27.1848C14.3059 27.0409 14.7854 26.9007 15.2669 26.7716C15.7483 26.6425 16.2353 26.53 16.7222 26.4212C17.211 26.3216 17.6998 26.2238 18.1942 26.1463C18.4395 26.1021 18.6866 26.0689 18.9338 26.032C19.181 25.9969 19.4281 25.9527 19.6753 25.9268L20.4205 25.8401L21.1675 25.7774C21.6674 25.7368 22.1673 25.7165 22.669 25.6999C23.1707 25.6833 23.6724 25.6704 24.1741 25.6833C24.6777 25.6797 25.1794 25.7184 25.683 25.7387C26.1847 25.783 26.6901 25.8014 27.1918 25.866L27.9462 25.9527C28.1971 25.984 28.4461 26.0301 28.6988 26.0633C29.2042 26.1279 29.7004 26.2293 30.2021 26.3234C30.7056 26.4101 31.1981 26.5411 31.7035 26.6388C31.2295 26.4433 30.7555 26.2404 30.2722 26.067C29.7852 25.901 29.3001 25.7258 28.8021 25.5893C28.3096 25.4343 27.806 25.3181 27.3025 25.1982C27.0516 25.1337 26.7971 25.0839 26.5425 25.0359C26.288 24.988 26.0334 24.9308 25.7789 24.8902C25.2661 24.8201 24.7515 24.7316 24.235 24.6873C23.7185 24.6264 23.2002 24.5914 22.6782 24.5582C22.4181 24.5397 22.1581 24.5434 21.898 24.536C21.6379 24.5305 21.376 24.5231 21.1159 24.5324L20.3338 24.5453L19.5517 24.584C19.0316 24.6172 18.5077 24.6522 17.9913 24.7242C17.4711 24.7832 16.9565 24.8662 16.44 24.9492C15.9254 25.0414 15.4107 25.1392 14.8998 25.2536C14.3889 25.3679 13.8798 25.4897 13.3762 25.6354C12.8727 25.7774 12.3709 25.9324 11.8748 26.1002C11.3767 26.2662 10.8861 26.4507 10.3973 26.6462C9.91033 26.8417 9.42706 27.052 8.94748 27.2733C8.46421 27.5021 8.0123 27.7345 7.51612 28.0259L7.04576 28.3026L7.12508 28.8541C7.12508 28.8541 7.59912 31.8865 6.01467 31.11C5.62916 30.92 5.26763 30.6267 4.9061 30.315C4.72902 30.1564 4.53534 30.0069 4.37302 29.8188C4.28817 29.7284 4.20148 29.6399 4.11294 29.5513C4.03178 29.4573 3.95616 29.354 3.87684 29.2562C3.79937 29.1566 3.71637 29.0589 3.64259 28.9556C3.53007 28.7766 3.41387 28.5977 3.29951 28.4151C3.27553 28.3764 3.25339 28.3376 3.2331 28.2971C3.17407 28.179 3.11505 28.061 3.05603 27.9429C3.00069 27.823 2.92506 27.7123 2.88633 27.5832C2.84206 27.4559 2.79595 27.3305 2.74614 27.2051L2.6742 27.0169L2.63731 26.9229L2.62071 26.8805V26.8768L2.61334 26.8491L2.4916 26.4119L2.36432 25.9785L2.28132 25.5837L2.19462 25.1909C2.17433 25.0544 2.15404 24.9179 2.13191 24.7832C2.04337 24.2409 2.01386 23.706 2.01017 23.1858C2.00279 22.9258 2.03969 22.6749 2.04338 22.4222C2.07842 22.1769 2.09871 21.9297 2.14482 21.6973C2.19278 21.4649 2.23152 21.2325 2.29976 21.0167C2.32928 20.906 2.35879 20.799 2.3883 20.6939C2.42519 20.5906 2.46208 20.4891 2.49713 20.3895C2.63547 19.9874 2.81254 19.6351 2.97855 19.3215C3.63152 18.2701 4.47632 19.9487 4.64233 20.2364C4.72164 20.3821 4.79542 20.5186 4.86552 20.6478C4.94299 20.7713 5.01677 20.8894 5.08502 20.9964C5.21967 21.214 5.33956 21.3948 5.4447 21.535C5.65129 21.819 5.76012 21.9703 5.76012 21.9703C5.76012 21.9703 5.67896 21.8024 5.52771 21.487C5.44655 21.3321 5.35985 21.1366 5.26394 20.9023C5.21414 20.7861 5.16249 20.6625 5.1053 20.5297C5.0555 20.3951 5.00201 20.2512 4.94483 20.0999C4.7198 19.4949 4.49661 18.7442 4.34351 17.8717C4.19041 16.9993 4.12032 16.0032 4.19226 14.9352C4.2808 13.8672 4.53165 12.731 4.96881 11.5966C5.42072 10.4678 6.06631 9.35181 6.88713 8.30964C7.69688 7.25826 8.72245 6.32677 9.82364 5.46721C10.9414 4.63532 12.1883 3.8846 13.4611 3.28881L13.9683 3.0564L14.221 2.94019L14.4516 2.84797C14.7762 2.71516 15.1027 2.5842 15.4347 2.48459C16.0951 2.25771 16.7702 2.11569 17.4434 2.01239C17.781 1.97366 18.1185 1.93123 18.4542 1.92385C18.7899 1.8925 19.1238 1.91463 19.4577 1.91463C20.1198 1.9589 20.7747 2.04928 21.4036 2.20976C22.6579 2.54362 23.8311 3.07669 24.8511 3.7481C25.8766 4.41213 26.7639 5.18684 27.5294 5.95786C28.2893 6.73625 28.9312 7.51465 29.4587 8.23586C29.9826 8.96077 30.4105 9.62111 30.737 10.1818C31.0635 10.7426 31.3051 11.1927 31.4619 11.5044C31.6169 11.818 31.6999 11.9858 31.6999 11.9858C31.6999 11.9858 30.9731 8.56603 32.5945 8.21373C32.6959 8.19528 32.7992 8.17684 32.9062 8.15655C33.0132 8.14364 33.122 8.13257 33.2345 8.11966C33.4559 8.08461 33.6864 8.08645 33.9207 8.07354C34.1549 8.0717 34.3966 8.08277 34.6382 8.10121C34.878 8.14917 35.127 8.14732 35.365 8.23033C35.4848 8.26353 35.6066 8.29489 35.7283 8.32256C35.8445 8.36867 35.9626 8.41663 36.0806 8.46458C36.3223 8.54206 36.5362 8.697 36.7686 8.81136C36.9051 8.87223 37.0121 8.9995 37.1431 9.07144C37.2372 9.14337 37.3312 9.21531 37.4235 9.2854L37.7389 9.56946C37.8495 9.6746 37.986 9.78158 38.0709 9.87934C38.2609 10.0822 38.4619 10.263 38.639 10.4954C39.0319 10.9197 39.3233 11.4048 39.6111 11.8807C39.8509 12.3787 40.0943 12.873 40.2179 13.395C40.3102 13.6477 40.3304 13.9134 40.395 14.1661C40.4374 14.4224 40.4614 14.6788 40.4909 14.9297C40.4983 15.1824 40.5223 15.4296 40.5168 15.6712C40.5075 15.9128 40.5131 16.1489 40.4946 16.3758C40.4743 16.6045 40.4559 16.824 40.4393 17.0325C40.4098 17.2427 40.3821 17.4401 40.3544 17.6283C40.2991 18.0045 40.2272 18.331 40.1829 18.6077C40.1146 18.8752 40.0741 19.0947 40.0409 19.2404C40.0113 19.3898 39.9947 19.4691 39.9947 19.4691C39.9947 19.4691 40.0409 19.4027 40.1275 19.2791C40.2106 19.1537 40.3415 18.9711 40.4909 18.7276C40.6237 18.4786 40.8082 18.1816 40.9705 17.8145C41.0498 17.6301 42.3096 17.56 43.0216 18.6612C43.4772 19.364 43.8646 20.2401 44.014 21.2085C44.097 21.6991 44.1118 22.2027 44.0693 22.7173Z" fill="#191919"/>
<defs>
<linearGradient id="paint0_linear" x1="32.1853" y1="20.2632" x2="41.2417" y2="2.47556" gradientUnits="userSpaceOnUse">
<stop stop-color="#FCFCFC"/>
<stop offset="0.2485" stop-color="#F7F7F7"/>
<stop offset="0.5351" stop-color="#E9EAEA"/>
<stop offset="0.8395" stop-color="#D2D3D4"/>
<stop offset="1" stop-color="#C3C4C6"/>
</linearGradient>
<linearGradient id="paint1_linear" x1="8.37372" y1="33.7406" x2="37.809" y2="4.30525" gradientUnits="userSpaceOnUse">
<stop stop-color="#FCFCFC"/>
<stop offset="0.2485" stop-color="#F7F7F7"/>
<stop offset="0.5351" stop-color="#E9EAEA"/>
<stop offset="0.8395" stop-color="#D2D3D4"/>
<stop offset="1" stop-color="#C3C4C6"/>
</linearGradient>
<linearGradient id="paint2_linear" x1="21.7577" y1="45.2839" x2="21.7577" y2="16.9827" gradientUnits="userSpaceOnUse">
<stop stop-color="#FCFCFC"/>
<stop offset="0.2485" stop-color="#F7F7F7"/>
<stop offset="0.5351" stop-color="#E9EAEA"/>
<stop offset="0.8395" stop-color="#D2D3D4"/>
<stop offset="1" stop-color="#C3C4C6"/>
</linearGradient>
</defs>
</svg>
