<svg width="52" height="52" viewBox="0 0 52 52" fill="none" xmlns="http://www.w3.org/2000/svg">
<path d="M17.3347 26C17.3347 21.2137 21.2137 17.3326 26 17.3326C30.7863 17.3326 34.6674 21.2137 34.6674 26C34.6674 30.7863 30.7863 34.6674 26 34.6674C21.2137 34.6674 17.3347 30.7863 17.3347 26ZM12.6493 26C12.6493 33.3736 18.6264 39.3507 26 39.3507C33.3736 39.3507 39.3507 33.3736 39.3507 26C39.3507 18.6264 33.3736 12.6493 26 12.6493C18.6264 12.6493 12.6493 18.6264 12.6493 26ZM36.7592 12.12C36.759 12.737 36.9417 13.3403 37.2843 13.8535C37.627 14.3668 38.1141 14.7669 38.6841 15.0032C39.2541 15.2396 39.8814 15.3016 40.4867 15.1815C41.0919 15.0613 41.648 14.7644 42.0845 14.3283C42.521 13.8921 42.8184 13.3363 42.939 12.7311C43.0596 12.1259 42.9981 11.4986 42.7622 10.9284C42.5263 10.3582 42.1266 9.87074 41.6136 9.52771C41.1007 9.18467 40.4975 9.00145 39.8805 9.0012H39.8792C39.0521 9.00159 38.2589 9.33025 37.6739 9.91501C37.0889 10.4998 36.7599 11.2928 36.7592 12.12ZM15.496 47.1634C12.9611 47.0479 11.5833 46.6257 10.6677 46.269C9.45381 45.7964 8.5877 45.2336 7.67707 44.3242C6.76645 43.4148 6.20277 42.5495 5.73227 41.3356C5.37534 40.4204 4.9531 39.0422 4.83787 36.5073C4.71182 33.7667 4.68666 32.9435 4.68666 26.0002C4.68666 19.057 4.7139 18.236 4.83787 15.4931C4.95331 12.9582 5.37867 11.5827 5.73227 10.6648C6.20485 9.4509 6.7677 8.58478 7.67707 7.67416C8.58645 6.76354 9.45173 6.19986 10.6677 5.72936C11.5829 5.37243 12.9611 4.95019 15.496 4.83496C18.2366 4.70891 19.0599 4.68374 26 4.68374C32.9401 4.68374 33.7642 4.71099 36.5071 4.83496C39.042 4.9504 40.4175 5.37576 41.3354 5.72936C42.5493 6.19986 43.4154 6.76478 44.326 7.67416C45.2367 8.58354 45.7983 9.4509 46.2708 10.6648C46.6278 11.58 47.05 12.9582 47.1652 15.4931C47.2913 18.236 47.3165 19.057 47.3165 26.0002C47.3165 32.9435 47.2913 33.7644 47.1652 36.5073C47.0498 39.0422 46.6255 40.42 46.2708 41.3356C45.7983 42.5495 45.2354 43.4156 44.326 44.3242C43.4167 45.2327 42.5493 45.7964 41.3354 46.269C40.4202 46.6259 39.042 47.0481 36.5071 47.1634C33.7665 47.2894 32.9432 47.3146 26 47.3146C19.0568 47.3146 18.2358 47.2894 15.496 47.1634ZM15.2807 0.157456C12.5129 0.283504 10.6215 0.722384 8.96979 1.3651C7.2592 2.02883 5.8111 2.91928 4.36405 4.36405C2.91699 5.80882 2.02883 7.2592 1.3651 8.96979C0.722384 10.6226 0.283504 12.5129 0.157456 15.2807C0.029328 18.0529 0 18.9392 0 26C0 33.0608 0.029328 33.9471 0.157456 36.7193C0.283504 39.4873 0.722384 41.3774 1.3651 43.0302C2.02883 44.7398 2.9172 46.1918 4.36405 47.636C5.8109 49.0801 7.2592 49.9693 8.96979 50.6349C10.6246 51.2776 12.5129 51.7165 15.2807 51.8425C18.0544 51.9686 18.9392 52 26 52C33.0608 52 33.9471 51.9707 36.7193 51.8425C39.4873 51.7165 41.3774 51.2776 43.0302 50.6349C44.7398 49.9693 46.1889 49.0807 47.6359 47.636C49.083 46.1912 49.9693 44.7398 50.6349 43.0302C51.2776 41.3774 51.7186 39.4871 51.8425 36.7193C51.9686 33.945 51.9979 33.0608 51.9979 26C51.9979 18.9392 51.9686 18.0529 51.8425 15.2807C51.7165 12.5127 51.2776 10.6215 50.6349 8.96979C49.9693 7.26024 49.0807 5.8111 47.6359 4.36405C46.1912 2.91699 44.7398 2.02883 43.0323 1.3651C41.3774 0.722384 39.4871 0.281424 36.7214 0.157456C33.9491 0.031408 33.0628 0 26.0021 0C18.9413 0 18.0544 0.029328 15.2807 0.157456Z" fill="url(#paint0_radial)"/>
<path d="M17.3347 26C17.3347 21.2137 21.2137 17.3326 26 17.3326C30.7863 17.3326 34.6674 21.2137 34.6674 26C34.6674 30.7863 30.7863 34.6674 26 34.6674C21.2137 34.6674 17.3347 30.7863 17.3347 26ZM12.6493 26C12.6493 33.3736 18.6264 39.3507 26 39.3507C33.3736 39.3507 39.3507 33.3736 39.3507 26C39.3507 18.6264 33.3736 12.6493 26 12.6493C18.6264 12.6493 12.6493 18.6264 12.6493 26ZM36.7592 12.12C36.759 12.737 36.9417 13.3403 37.2843 13.8535C37.627 14.3668 38.1141 14.7669 38.6841 15.0032C39.2541 15.2396 39.8814 15.3016 40.4867 15.1815C41.0919 15.0613 41.648 14.7644 42.0845 14.3283C42.521 13.8921 42.8184 13.3363 42.939 12.7311C43.0596 12.1259 42.9981 11.4986 42.7622 10.9284C42.5263 10.3582 42.1266 9.87074 41.6136 9.52771C41.1007 9.18467 40.4975 9.00145 39.8805 9.0012H39.8792C39.0521 9.00159 38.2589 9.33025 37.6739 9.91501C37.0889 10.4998 36.7599 11.2928 36.7592 12.12ZM15.496 47.1634C12.9611 47.0479 11.5833 46.6257 10.6677 46.269C9.45381 45.7964 8.5877 45.2336 7.67707 44.3242C6.76645 43.4148 6.20277 42.5495 5.73227 41.3356C5.37534 40.4204 4.9531 39.0422 4.83787 36.5073C4.71182 33.7667 4.68666 32.9435 4.68666 26.0002C4.68666 19.057 4.7139 18.236 4.83787 15.4931C4.95331 12.9582 5.37867 11.5827 5.73227 10.6648C6.20485 9.4509 6.7677 8.58478 7.67707 7.67416C8.58645 6.76354 9.45173 6.19986 10.6677 5.72936C11.5829 5.37243 12.9611 4.95019 15.496 4.83496C18.2366 4.70891 19.0599 4.68374 26 4.68374C32.9401 4.68374 33.7642 4.71099 36.5071 4.83496C39.042 4.9504 40.4175 5.37576 41.3354 5.72936C42.5493 6.19986 43.4154 6.76478 44.326 7.67416C45.2367 8.58354 45.7983 9.4509 46.2708 10.6648C46.6278 11.58 47.05 12.9582 47.1652 15.4931C47.2913 18.236 47.3165 19.057 47.3165 26.0002C47.3165 32.9435 47.2913 33.7644 47.1652 36.5073C47.0498 39.0422 46.6255 40.42 46.2708 41.3356C45.7983 42.5495 45.2354 43.4156 44.326 44.3242C43.4167 45.2327 42.5493 45.7964 41.3354 46.269C40.4202 46.6259 39.042 47.0481 36.5071 47.1634C33.7665 47.2894 32.9432 47.3146 26 47.3146C19.0568 47.3146 18.2358 47.2894 15.496 47.1634ZM15.2807 0.157456C12.5129 0.283504 10.6215 0.722384 8.96979 1.3651C7.2592 2.02883 5.8111 2.91928 4.36405 4.36405C2.91699 5.80882 2.02883 7.2592 1.3651 8.96979C0.722384 10.6226 0.283504 12.5129 0.157456 15.2807C0.029328 18.0529 0 18.9392 0 26C0 33.0608 0.029328 33.9471 0.157456 36.7193C0.283504 39.4873 0.722384 41.3774 1.3651 43.0302C2.02883 44.7398 2.9172 46.1918 4.36405 47.636C5.8109 49.0801 7.2592 49.9693 8.96979 50.6349C10.6246 51.2776 12.5129 51.7165 15.2807 51.8425C18.0544 51.9686 18.9392 52 26 52C33.0608 52 33.9471 51.9707 36.7193 51.8425C39.4873 51.7165 41.3774 51.2776 43.0302 50.6349C44.7398 49.9693 46.1889 49.0807 47.6359 47.636C49.083 46.1912 49.9693 44.7398 50.6349 43.0302C51.2776 41.3774 51.7186 39.4871 51.8425 36.7193C51.9686 33.945 51.9979 33.0608 51.9979 26C51.9979 18.9392 51.9686 18.0529 51.8425 15.2807C51.7165 12.5127 51.2776 10.6215 50.6349 8.96979C49.9693 7.26024 49.0807 5.8111 47.6359 4.36405C46.1912 2.91699 44.7398 2.02883 43.0323 1.3651C41.3774 0.722384 39.4871 0.281424 36.7214 0.157456C33.9491 0.031408 33.0628 0 26.0021 0C18.9413 0 18.0544 0.029328 15.2807 0.157456Z" fill="url(#paint1_radial)"/>
<defs>
<radialGradient id="paint0_radial" cx="0" cy="0" r="1" gradientUnits="userSpaceOnUse" gradientTransform="translate(6.90851 52.2456) scale(67.8816)">
<stop offset="0.09" stop-color="#FA8F21"/>
<stop offset="0.78" stop-color="#D82D7E"/>
</radialGradient>
<radialGradient id="paint1_radial" cx="0" cy="0" r="1" gradientUnits="userSpaceOnUse" gradientTransform="translate(31.5357 54.5752) scale(53.5001)">
<stop offset="0.64" stop-color="#8C3AAA" stop-opacity="0"/>
<stop offset="1" stop-color="#8C3AAA"/>
</radialGradient>
</defs>
</svg>
