<svg width="16" height="20" viewBox="0 0 16 20" fill="none" xmlns="http://www.w3.org/2000/svg">
<path d="M8 4C9.10457 4 10 3.10457 10 2C10 0.89543 9.10457 0 8 0C6.89543 0 6 0.89543 6 2C6 3.10457 6.89543 4 8 4Z" fill="#FA5353"/>
<path d="M11.89 6.11C11.5 5.72 10.83 5 9.52999 5C9.31999 5 8.10999 5 6.98999 5C4.52999 4.99 2.47999 3.2 2.06999 0.85C1.98999 0.36 1.57999 0 1.08999 0C0.479987 0 -1.35005e-05 0.54 0.0899865 1.14C0.529987 3.8 2.46999 5.95 4.99999 6.71V19C4.99999 19.55 5.44999 20 5.99999 20C6.54999 20 6.99999 19.55 6.99999 19V14H8.99999V19C8.99999 19.55 9.44999 20 9.99999 20C10.55 20 11 19.55 11 19V8.05L14.24 11.29C14.63 11.68 15.26 11.68 15.65 11.29C16.04 10.9 16.04 10.27 15.65 9.88L11.89 6.11Z" fill="#FA5353"/>
</svg>
