<svg width="85" height="13" viewBox="0 0 85 13" fill="none" xmlns="http://www.w3.org/2000/svg">
<path d="M1.79986 7.66398C-1.70014 2.66398 5.5 4 16 1C21.5 -0.526309 22.7999 6.16398 22.7999 10.164C22.7999 14.164 5.29986 12.664 1.79986 7.66398Z" fill="#FCC124"/>
<path d="M53 4.37893C53 10.5429 52.2999 9.00003 41.7999 12C36.2999 13.5263 30.7998 9.5429 30.7998 5.5429C30.7998 1.5429 53 -1.72435 53 4.37893Z" fill="#4C6EF6"/>
<path d="M61.074 8.51502C64.0739 -2.59906 66.5739 1.90095 76.0739 1.90094C83.2741 1.90094 84.074 4.51502 84.074 8.51502C84.074 12.515 59.4834 14.4074 61.074 8.51502Z" fill="#FA5353"/>
</svg>
