<svg width="21" height="18" viewBox="0 0 21 18" fill="none" xmlns="http://www.w3.org/2000/svg">
<path d="M19.9 4.89L18.85 1.52C18.63 0.62 17.85 0 16.94 0H3.05001C2.15001 0 1.36001 0.63 1.15001 1.52L0.100014 4.89C-0.359986 6.86 0.950014 8 1.00001 8.06V16C1.00001 17.1 1.90001 18 3.00001 18H17C18.1 18 19 17.1 19 16V8.06C20.12 6.94 20.09 5.65 19.9 4.89ZM11 2H12.96L13.5 5.52C13.59 6.23 13.11 7 12.22 7C11.55 7 11 6.41 11 5.69V2ZM4.44001 5.86C4.36001 6.51 3.84001 7 3.23001 7C2.30001 7 1.88001 6.03 2.04001 5.36L3.05001 2H5.02001L4.44001 5.86ZM9.00001 5.69C9.00001 6.41 8.45001 7 7.71001 7C6.96001 7 6.41001 6.3 6.49001 5.52L7.04001 2H9.00001V5.69ZM16.77 7C16.16 7 15.63 6.51 15.56 5.86L14.98 2L16.91 1.99L17.96 5.36C18.12 6.03 17.71 7 16.77 7Z" fill="#4C6EF6"/>
</svg>
